<svg xmlns="http://www.w3.org/2000/svg" xmlns:xlink="http://www.w3.org/1999/xlink" version="1.1" id="prefix__Layer_1" x="0" y="0" viewBox="0 0 81 81" xml:space="preserve"><style></style><defs><path id="prefix__SVGID_11_" d="M12 14h64v64H12z"/></defs><clipPath id="prefix__SVGID_12_"><use xlink:href="#prefix__SVGID_11_" overflow="visible"/></clipPath><g xmlns="http://www.w3.org/2000/svg" clip-path="url(#prefix__SVGID_12_)"><path d="M40.9 64.4c-11.8 0-21.5-9.6-21.5-21.5S29 21.4 40.9 21.4c8.9 0 17 5.6 20.1 14l-3.1 1.2c-2.7-7.1-9.5-11.9-17.1-11.9-10 0-18.1 8.1-18.1 18.2s8.2 18.2 18.2 18.2c3.8 0 7.5-1.2 10.6-3.4l1.9 2.7c-3.7 2.7-8 4-12.5 4z" fill="#455ca8"/><path d="M40.9 27.2c2.3 0 4.5.5 6.5 1.5l-1.4 3c-1.6-.7-3.3-1.2-5.2-1.2-6.7 0-12.2 5.6-12.2 12.4 0 6.9 5.5 12.4 12.2 12.4v3.3c-8.6 0-15.5-7.1-15.5-15.7.1-8.7 7-15.7 15.6-15.7z" fill="#d43329"/><path d="M63.5 34.5c-3.4-9.2-12.2-15.7-22.6-15.7-13.3 0-24.1 10.8-24.1 24.1 0 5.8 2 11 5.4 15.2l-3.7 3.1c-4.1-5-6.5-11.4-6.5-18.3C12 27 25 14 40.9 14 53.4 14 64 21.9 68 32.9l-4.5 1.6z" fill="#63c1ec"/></g></svg>